<?xml version="1.0" encoding="UTF-8"?><svg id="Layer_1" xmlns="http://www.w3.org/2000/svg" xmlns:xlink="http://www.w3.org/1999/xlink" viewBox="0 0 292 130"><defs><style>.cls-1{fill:url(#linear-gradient);}.cls-2{fill:#b18052;font-family:Lato-Bold, Lato;font-size:15.5px;font-weight:700;letter-spacing:.25em;}.cls-3{fill:url(#linear-gradient-8);}.cls-4{fill:url(#linear-gradient-9);}.cls-5{fill:url(#linear-gradient-3);}.cls-6{fill:url(#linear-gradient-4);}.cls-7{fill:url(#linear-gradient-2);}.cls-8{fill:url(#linear-gradient-6);}.cls-9{fill:url(#linear-gradient-7);}.cls-10{fill:url(#linear-gradient-5);}.cls-11{fill:url(#linear-gradient-13);}.cls-12{fill:url(#linear-gradient-12);}.cls-13{fill:url(#linear-gradient-10);}.cls-14{fill:url(#linear-gradient-11);}</style><linearGradient id="linear-gradient" x1="36.24" y1="19.2" x2="273.43" y2="93.62" gradientUnits="userSpaceOnUse"><stop offset="0" stop-color="#fcecc8"/><stop offset=".08" stop-color="#f1dcb1"/><stop offset=".23" stop-color="#d5b577"/><stop offset=".27" stop-color="#cfac6a"/><stop offset=".58" stop-color="#aa764a"/><stop offset=".8" stop-color="#935436"/><stop offset=".87" stop-color="#a67046"/><stop offset="1" stop-color="#cfac6a"/></linearGradient><linearGradient id="linear-gradient-2" x1="38.16" y1="13.08" x2="275.35" y2="87.5" xlink:href="#linear-gradient"/><linearGradient id="linear-gradient-3" x1="42.92" y1="-2.07" x2="280.1" y2="72.35" xlink:href="#linear-gradient"/><linearGradient id="linear-gradient-4" x1="44.39" y1="-6.76" x2="281.57" y2="67.66" xlink:href="#linear-gradient"/><linearGradient id="linear-gradient-5" x1="45.54" y1="-10.43" x2="282.73" y2="63.99" xlink:href="#linear-gradient"/><linearGradient id="linear-gradient-6" x1="46.75" y1="-14.29" x2="283.94" y2="60.14" xlink:href="#linear-gradient"/><linearGradient id="linear-gradient-7" x1="22.1" y1="64.26" x2="259.29" y2="138.69" xlink:href="#linear-gradient"/><linearGradient id="linear-gradient-8" x1="24.7" y1="55.97" x2="261.89" y2="130.4" xlink:href="#linear-gradient"/><linearGradient id="linear-gradient-9" x1="27.6" y1="46.73" x2="264.79" y2="121.15" xlink:href="#linear-gradient"/><linearGradient id="linear-gradient-10" x1="30.86" y1="36.35" x2="268.05" y2="110.78" xlink:href="#linear-gradient"/><linearGradient id="linear-gradient-11" x1="31.64" y1="33.84" x2="268.83" y2="108.27" xlink:href="#linear-gradient"/><linearGradient id="linear-gradient-12" x1="37.5" y1="15.18" x2="274.69" y2="89.61" xlink:href="#linear-gradient"/><linearGradient id="linear-gradient-13" x1="40.1" y1="6.89" x2="277.29" y2="81.32" xlink:href="#linear-gradient"/></defs><text class="cls-2" transform="translate(.6 129.43)"><tspan x="0" y="0">LUXURY VILLA COLLECTION</tspan></text><path class="cls-1" d="m90.33,34.97c-13.5-.03-29.26-4.96-38.93-8.62-2.57-1.07-5.15-2.08-7.69-3.2,11.89,3.4,31.09,9.93,46.99,10.44l-.38,1.38Z"/><path class="cls-7" d="m85.16,37.25c0-11,9.46-20.46,20.72-20.46,6.46,0,10.04,3.07,10.04,7.16,0,7.29-10.42,10.04-21.42,10.29-.26,1.6-.38,3.26-.38,4.79,0,6.07,2.94,9.59,7.29,9.59,4.67,0,9.4-2.69,11.89-8.31l.19.13c-2.56,6.07-8.25,9.14-14.96,9.14-6.97,0-13.36-4.41-13.36-12.34Zm9.4-3.26c9.4-.32,14.96-4.6,14.96-12.34,0-2.75-.96-4.6-3.71-4.6-5.43,0-9.91,8.5-11.25,16.94Z"/><path class="cls-5" d="m118.16,41.54L128.26,1.06h9.21s-10.61,42.39-10.61,42.39c-.19.77-.32,1.41-.32,2.3,0,1.21.7,2.05,1.92,2.05,1.66,0,3.45-1.53,4.99-4.54l.19.13c-2.11,4.41-5.43,6.2-9.14,6.2-4.28,0-6.59-2.43-6.59-5.82,0-.7.06-1.47.26-2.24Z"/><path class="cls-6" d="m145.72,45.75c0,1.21.7,2.05,1.92,2.05,1.66,0,3.45-1.53,4.99-4.54l.19.13c-2.11,4.41-5.43,6.2-9.14,6.2-4.28,0-6.58-2.43-6.58-5.82,0-.7.06-1.47.26-2.24l6.01-24.1h9.21s-6.52,26.02-6.52,26.02c-.19.77-.32,1.41-.32,2.3Zm1.15-43.09h9.33s-2.3,9.21-2.3,9.21h-9.27s2.24-9.21,2.24-9.21Z"/><path class="cls-10" d="m157.87,17.43h4.67s1.85-6.52,1.85-6.52l9.91-3.9-2.56,10.42h9.85s-.19.26-.19.26h-9.72s-6.01,24.17-6.01,24.17c-.26.9-.38,1.73-.38,2.49,0,2.37,1.34,3.77,3.71,3.77,4.09,0,7.54-3.96,9.33-10.23l.26.06c-1.85,6.65-5.75,11.64-13.04,11.64-5.05,0-8.76-2.75-8.76-7.74,0-.83.13-1.79.38-2.81l5.31-21.35h-4.67s.06-.26.06-.26Z"/><path class="cls-8" d="m180.95,37.25c0-11,9.46-20.46,20.72-20.46,6.46,0,10.04,3.07,10.04,7.16,0,7.29-10.42,10.04-21.42,10.29-.26,1.6-.38,3.26-.38,4.79,0,6.07,2.94,9.59,7.29,9.59,4.67,0,9.4-2.69,11.89-8.31l.19.13c-2.56,6.07-8.25,9.14-14.96,9.14-6.97,0-13.36-4.41-13.36-12.34Zm9.4-3.26c9.4-.32,14.96-4.6,14.96-12.34,0-2.75-.96-4.6-3.71-4.6-5.43,0-9.91,8.5-11.25,16.94Z"/><path class="cls-9" d="m32.86,77.07c0-11,9.46-20.46,20.72-20.46,6.46,0,10.04,3.07,10.04,7.16,0,7.29-10.42,10.04-21.42,10.29-.26,1.6-.38,3.26-.38,4.79,0,6.07,2.94,9.59,7.29,9.59,4.67,0,9.4-2.69,11.89-8.31l.19.13c-2.56,6.07-8.25,9.14-14.96,9.14-6.97,0-13.36-4.41-13.36-12.34Zm9.4-3.26c9.4-.32,14.96-4.6,14.96-12.34,0-2.75-.96-4.6-3.71-4.6-5.43,0-9.91,8.5-11.25,16.94Z"/><path class="cls-3" d="m74.81,62.62c0,2.88,2.69,4.28,6.33,5.82,5.63,2.37,9.65,4.48,9.65,9.53,0,6.27-5.82,11.44-14.26,11.44-7.1,0-12.66-3.52-12.66-8.12,0-2.43,1.47-4.35,3.64-5.11l.13.19c-2.11.77-3.52,2.56-3.52,4.92,0,4.48,5.37,7.74,11.57,7.74,5.24,0,8.18-2.94,8.18-6.59,0-3.01-2.49-4.41-6.52-6.14-5.05-2.24-9.01-4.09-9.01-9.01,0-6.01,5.31-10.68,13.36-10.68,6.39,0,10.49,2.81,10.49,6.9,0,2.05-1.21,3.64-2.88,4.41l-.13-.19c1.6-.77,2.75-2.24,2.75-4.22,0-3.96-3.77-6.59-10.04-6.59-4.35,0-7.1,2.37-7.1,5.69Z"/><path class="cls-4" d="m104.16,78.92c0,6.01,2.3,9.53,6.65,9.53,4.41,0,8.89-2.69,11.25-8.38l.19.13c-2.37,5.88-7.48,9.21-14.45,9.21-6.52,0-12.6-4.73-12.6-12.79,0-10.74,8.7-20.01,19.37-20.01,6.33,0,9.65,3.2,9.65,7.42,0,3.2-1.6,5.31-4.03,6.52l-.06-.26c2.37-1.15,3.84-3.2,3.84-6.27,0-3.45-2.37-6.2-6.91-6.2-8.18,0-12.91,11.32-12.91,21.1Z"/><path class="cls-13" d="m147.57,81.35c-2.11,4.35-6.07,8.06-11.19,8.06-6.39,0-10.1-4.92-10.1-11.57,0-10.93,7.29-21.23,17.26-21.23,4.92,0,8.12,3.58,7.99,8.44l2.43-7.8h8.76s-6.52,26.02-6.52,26.02c-.13.64-.26,1.41-.26,2.11,0,1.21.64,2.24,1.92,2.24,1.6,0,3.39-1.53,4.92-4.54l.19.13c-2.11,4.41-5.43,6.2-9.14,6.2-4.28,0-6.65-2.43-6.65-5.88,0-.25.06-.96.38-2.17Zm3.07-12.4c.32-1.28.64-2.88.64-4.28,0-3.01-1.6-5.69-4.8-5.69-6.07,0-10.93,11.06-10.93,21.04,0,4.22,1.22,7.22,4.28,7.22,3.52,0,6.84-3.84,8.06-7.35l2.75-10.93Z"/><path class="cls-14" d="m170.59,102.51h-9.27s11.25-45.27,11.25-45.27h9.01s-1.66,7.42-1.66,7.42c2.3-4.48,6.39-8.06,11.7-8.06,6.27,0,9.97,4.73,9.97,11.38,0,10.87-7.22,21.42-17.2,21.42-5.05,0-8.44-3.58-8.5-8.5l-5.31,21.61Zm6.33-25.7c-.45,1.66-.77,2.81-.77,4.09,0,3.64,1.98,6.2,5.24,6.2,6.27,0,10.93-11.51,10.93-21.35,0-3.84-.96-7.03-4.35-7.03-3.71,0-6.9,3.71-8.31,7.1l-2.75,11Z"/><path class="cls-12" d="m204.67,77.07c0-11,9.46-20.46,20.72-20.46,6.46,0,10.04,3.07,10.04,7.16,0,7.29-10.42,10.04-21.42,10.29-.26,1.6-.38,3.26-.38,4.79,0,6.07,2.94,9.59,7.29,9.59,4.67,0,9.4-2.69,11.89-8.31l.19.13c-2.56,6.07-8.25,9.14-14.96,9.14-6.97,0-13.36-4.41-13.36-12.34Zm9.4-3.26c9.4-.32,14.96-4.6,14.96-12.34,0-2.75-.96-4.6-3.71-4.6-5.43,0-9.91,8.5-11.25,16.94Z"/><path class="cls-11" d="m246.62,62.62c0,2.88,2.69,4.28,6.33,5.82,5.63,2.37,9.65,4.48,9.65,9.53,0,6.27-5.82,11.44-14.26,11.44-7.1,0-12.66-3.52-12.66-8.12,0-2.43,1.47-4.35,3.64-5.11l.13.19c-2.11.77-3.52,2.56-3.52,4.92,0,4.48,5.37,7.74,11.57,7.74,5.24,0,8.18-2.94,8.18-6.59,0-3.01-2.49-4.41-6.52-6.14-5.05-2.24-9.01-4.09-9.01-9.01,0-6.01,5.31-10.68,13.36-10.68,6.39,0,10.49,2.81,10.49,6.9,0,2.05-1.21,3.64-2.88,4.41l-.13-.19c1.6-.77,2.75-2.24,2.75-4.22,0-3.96-3.77-6.59-10.04-6.59-4.35,0-7.1,2.37-7.1,5.69Z"/></svg>