<?xml version="1.0" encoding="UTF-8"?><svg id="Layer_1" xmlns="http://www.w3.org/2000/svg" xmlns:xlink="http://www.w3.org/1999/xlink" viewBox="0 0 292 48.16"><defs><style>.cls-1{fill:url(#linear-gradient);}.cls-2{fill:url(#linear-gradient-8);}.cls-3{fill:url(#linear-gradient-9);}.cls-4{fill:url(#linear-gradient-3);}.cls-5{fill:url(#linear-gradient-4);}.cls-6{fill:url(#linear-gradient-2);}.cls-7{fill:url(#linear-gradient-6);}.cls-8{fill:url(#linear-gradient-7);}.cls-9{fill:url(#linear-gradient-5);}.cls-10{fill:url(#linear-gradient-13);}.cls-11{fill:url(#linear-gradient-12);}.cls-12{fill:url(#linear-gradient-10);}.cls-13{fill:url(#linear-gradient-11);}</style><linearGradient id="linear-gradient" x1="8.79" y1="20.71" x2="285.86" y2="74.06" gradientUnits="userSpaceOnUse"><stop offset="0" stop-color="#fcecc8"/><stop offset=".08" stop-color="#f1dcb1"/><stop offset=".23" stop-color="#d5b577"/><stop offset=".27" stop-color="#cfac6a"/><stop offset=".58" stop-color="#aa764a"/><stop offset=".8" stop-color="#935436"/><stop offset=".87" stop-color="#a67046"/><stop offset="1" stop-color="#cfac6a"/></linearGradient><linearGradient id="linear-gradient-2" x1="9.22" y1="18.49" x2="286.3" y2="71.84" xlink:href="#linear-gradient"/><linearGradient id="linear-gradient-3" x1="10.95" y1="9.5" x2="288.02" y2="62.86" xlink:href="#linear-gradient"/><linearGradient id="linear-gradient-4" x1="11.32" y1="7.58" x2="288.39" y2="60.93" xlink:href="#linear-gradient"/><linearGradient id="linear-gradient-5" x1="11.53" y1="6.46" x2="288.61" y2="59.82" xlink:href="#linear-gradient"/><linearGradient id="linear-gradient-6" x1="11.62" y1="6.02" x2="288.7" y2="59.38" xlink:href="#linear-gradient"/><linearGradient id="linear-gradient-7" x1="12.72" y1=".33" x2="289.8" y2="53.68" xlink:href="#linear-gradient"/><linearGradient id="linear-gradient-8" x1="13.44" y1="-3.46" x2="290.52" y2="49.9" xlink:href="#linear-gradient"/><linearGradient id="linear-gradient-9" x1="14.25" y1="-7.66" x2="291.33" y2="45.7" xlink:href="#linear-gradient"/><linearGradient id="linear-gradient-10" x1="15.16" y1="-12.34" x2="292.23" y2="41.01" xlink:href="#linear-gradient"/><linearGradient id="linear-gradient-11" x1="15.05" y1="-11.78" x2="292.12" y2="41.58" xlink:href="#linear-gradient"/><linearGradient id="linear-gradient-12" x1="17.02" y1="-22.03" x2="294.1" y2="31.33" xlink:href="#linear-gradient"/><linearGradient id="linear-gradient-13" x1="17.75" y1="-25.81" x2="294.82" y2="27.54" xlink:href="#linear-gradient"/></defs><path class="cls-1" d="m34.05,26.13c-9.46-.02-20.51-3.48-27.28-6.04-1.8-.75-3.61-1.46-5.39-2.24,8.33,2.38,21.79,6.96,32.93,7.31l-.26.97Z"/><path class="cls-6" d="m30.43,27.73c0-7.71,6.63-14.34,14.52-14.34,4.52,0,7.03,2.15,7.03,5.02,0,5.11-7.3,7.03-15.01,7.21-.18,1.12-.27,2.28-.27,3.36,0,4.26,2.06,6.72,5.11,6.72,3.27,0,6.59-1.88,8.33-5.82l.13.09c-1.79,4.26-5.78,6.41-10.48,6.41-4.88,0-9.36-3.09-9.36-8.65Zm6.59-2.28c6.59-.22,10.48-3.23,10.48-8.65,0-1.93-.67-3.23-2.6-3.23-3.81,0-6.94,5.96-7.88,11.87Z"/><path class="cls-4" d="m53.55,30.73l7.08-28.36h6.45s-7.44,29.7-7.44,29.7c-.13.54-.22.99-.22,1.61,0,.85.49,1.43,1.34,1.43,1.16,0,2.42-1.07,3.49-3.18l.13.09c-1.48,3.09-3.81,4.35-6.41,4.35-3,0-4.61-1.7-4.61-4.08,0-.49.05-1.03.18-1.57Z"/><path class="cls-5" d="m72.86,33.68c0,.85.49,1.43,1.34,1.43,1.16,0,2.42-1.07,3.49-3.18l.13.09c-1.48,3.09-3.81,4.35-6.41,4.35-3,0-4.61-1.7-4.61-4.08,0-.49.04-1.03.18-1.57l4.21-16.89h6.45s-4.57,18.23-4.57,18.23c-.13.54-.22.99-.22,1.61Zm.81-30.19h6.54s-1.61,6.45-1.61,6.45h-6.5s1.57-6.45,1.57-6.45Z"/><path class="cls-9" d="m81.37,13.84h3.27s1.3-4.57,1.3-4.57l6.94-2.73-1.79,7.3h6.9s-.13.18-.13.18h-6.81s-4.21,16.93-4.21,16.93c-.18.63-.27,1.21-.27,1.75,0,1.66.94,2.64,2.6,2.64,2.87,0,5.29-2.78,6.54-7.17l.18.05c-1.3,4.66-4.03,8.15-9.14,8.15-3.54,0-6.14-1.93-6.14-5.42,0-.58.09-1.25.27-1.97l3.72-14.96h-3.27s.05-.18.05-.18Z"/><path class="cls-7" d="m97.55,27.73c0-7.71,6.63-14.34,14.52-14.34,4.52,0,7.03,2.15,7.03,5.02,0,5.11-7.3,7.03-15.01,7.21-.18,1.12-.27,2.28-.27,3.36,0,4.26,2.06,6.72,5.11,6.72,3.27,0,6.59-1.88,8.33-5.82l.13.09c-1.79,4.26-5.78,6.41-10.48,6.41-4.88,0-9.36-3.09-9.36-8.65Zm6.59-2.28c6.59-.22,10.48-3.23,10.48-8.65,0-1.93-.67-3.23-2.6-3.23-3.81,0-6.94,5.96-7.88,11.87Z"/><path class="cls-8" d="m128.24,27.73c0-7.71,6.63-14.34,14.52-14.34,4.52,0,7.03,2.15,7.03,5.02,0,5.11-7.3,7.03-15.01,7.21-.18,1.12-.27,2.28-.27,3.36,0,4.26,2.06,6.72,5.11,6.72,3.27,0,6.59-1.88,8.33-5.82l.13.09c-1.79,4.26-5.78,6.41-10.48,6.41-4.88,0-9.36-3.09-9.36-8.65Zm6.59-2.28c6.59-.22,10.48-3.23,10.48-8.65,0-1.93-.67-3.23-2.6-3.23-3.81,0-6.94,5.96-7.88,11.87Z"/><path class="cls-2" d="m157.63,17.6c0,2.02,1.88,3,4.44,4.08,3.94,1.66,6.76,3.14,6.76,6.68,0,4.39-4.08,8.02-9.99,8.02-4.97,0-8.87-2.46-8.87-5.69,0-1.7,1.03-3.05,2.55-3.58l.09.13c-1.48.54-2.46,1.79-2.46,3.45,0,3.14,3.76,5.42,8.11,5.42,3.67,0,5.73-2.06,5.73-4.61,0-2.11-1.75-3.09-4.57-4.3-3.54-1.57-6.32-2.87-6.32-6.32,0-4.21,3.72-7.48,9.36-7.48,4.48,0,7.35,1.97,7.35,4.84,0,1.43-.85,2.55-2.02,3.09l-.09-.13c1.12-.54,1.93-1.57,1.93-2.96,0-2.78-2.64-4.61-7.03-4.61-3.05,0-4.97,1.66-4.97,3.99Z"/><path class="cls-3" d="m178.2,29.03c0,4.21,1.61,6.67,4.66,6.67,3.09,0,6.23-1.88,7.88-5.87l.13.09c-1.66,4.12-5.24,6.45-10.12,6.45-4.57,0-8.83-3.32-8.83-8.96,0-7.53,6.09-14.02,13.57-14.02,4.44,0,6.76,2.24,6.76,5.2,0,2.24-1.12,3.72-2.82,4.57l-.05-.18c1.66-.81,2.69-2.24,2.69-4.39,0-2.42-1.66-4.35-4.84-4.35-5.73,0-9.05,7.93-9.05,14.78Z"/><path class="cls-12" d="m208.62,30.73c-1.48,3.05-4.26,5.65-7.84,5.65-4.48,0-7.08-3.45-7.08-8.11,0-7.66,5.11-14.87,12.1-14.87,3.45,0,5.69,2.51,5.6,5.91l1.7-5.47h6.14s-4.57,18.23-4.57,18.23c-.09.45-.18.99-.18,1.48,0,.85.45,1.57,1.34,1.57,1.12,0,2.37-1.07,3.45-3.18l.13.09c-1.48,3.09-3.81,4.35-6.41,4.35-3,0-4.66-1.7-4.66-4.12,0-.18.04-.67.27-1.52Zm2.15-8.69c.22-.9.45-2.02.45-3,0-2.11-1.12-3.99-3.36-3.99-4.26,0-7.66,7.75-7.66,14.74,0,2.96.85,5.06,3,5.06,2.46,0,4.79-2.69,5.64-5.15l1.93-7.66Z"/><path class="cls-13" d="m224.75,45.56h-6.5s7.88-31.72,7.88-31.72h6.32s-1.16,5.2-1.16,5.2c1.61-3.14,4.48-5.65,8.2-5.65,4.39,0,6.99,3.32,6.99,7.97,0,7.62-5.06,15.01-12.05,15.01-3.54,0-5.91-2.51-5.96-5.96l-3.72,15.14Zm4.44-18.01c-.31,1.16-.54,1.97-.54,2.87,0,2.55,1.39,4.35,3.67,4.35,4.39,0,7.66-8.06,7.66-14.96,0-2.69-.67-4.93-3.05-4.93-2.6,0-4.84,2.6-5.82,4.97l-1.93,7.71Z"/><path class="cls-11" d="m248.63,27.73c0-7.71,6.63-14.34,14.52-14.34,4.52,0,7.03,2.15,7.03,5.02,0,5.11-7.3,7.03-15.01,7.21-.18,1.12-.27,2.28-.27,3.36,0,4.26,2.06,6.72,5.11,6.72,3.27,0,6.59-1.88,8.33-5.82l.13.09c-1.79,4.26-5.78,6.41-10.48,6.41s-9.36-3.09-9.36-8.65Zm6.59-2.28c6.59-.22,10.48-3.23,10.48-8.65,0-1.93-.67-3.23-2.6-3.23-3.81,0-6.94,5.96-7.88,11.87Z"/><path class="cls-10" d="m278.02,17.6c0,2.02,1.88,3,4.44,4.08,3.94,1.66,6.76,3.14,6.76,6.68,0,4.39-4.08,8.02-9.99,8.02-4.97,0-8.87-2.46-8.87-5.69,0-1.7,1.03-3.05,2.55-3.58l.09.13c-1.48.54-2.46,1.79-2.46,3.45,0,3.14,3.76,5.42,8.11,5.42,3.67,0,5.73-2.06,5.73-4.61,0-2.11-1.75-3.09-4.57-4.3-3.54-1.57-6.32-2.87-6.32-6.32,0-4.21,3.72-7.48,9.36-7.48,4.48,0,7.35,1.97,7.35,4.84,0,1.43-.85,2.55-2.02,3.09l-.09-.13c1.12-.54,1.93-1.57,1.93-2.96,0-2.78-2.64-4.61-7.03-4.61-3.05,0-4.97,1.66-4.97,3.99Z"/></svg>